<?xml version="1.0" encoding="utf-8"?>
<!-- Generator: Adobe Illustrator 26.0.1, SVG Export Plug-In . SVG Version: 6.00 Build 0)  -->
<svg version="1.1" id="logo" xmlns="http://www.w3.org/2000/svg" xmlns:xlink="http://www.w3.org/1999/xlink" x="0px" y="0px"
	 viewBox="0 0 1395.4 397.7" style="enable-background:new 0 0 1395.4 397.7;" xml:space="preserve">
<path id="symbol" d="M190.3,222.3c-2.4-6.9-5.1-13.8-7.1-20.8c-2.5-8.5-2.7-17.3-3-26.2c-0.2-6.6-0.4-13.2-1-19.7
	c-0.3-4.9-2.2-9.5-5.6-13c-10.6-10.9-29.1-6.7-34.2,7.7c-3,8.2-3.5,16.7-3.7,24c0.2,16.5,3.1,32.9,8.7,48.5
	c3.6,10.5,8.6,20.2,16.2,28.5c4,4.3,8.5,7.8,14.4,9.2c6.4,1.6,14.5-0.9,17.6-7.6c1.5-3.4,2.3-7,2.2-10.7
	C194.6,235.3,192.5,228.8,190.3,222.3z M273.3,222c-5.7-20.8-9.2-42-11.5-63.5c-1.2-10.9-2.8-21.8-4.8-32.5
	c-2.9-15.7-9.7-30.3-19.8-42.7c-16.9-20.5-38.7-31.7-65-34.3c-16.8-1.8-33.9,0.7-49.5,7.2c-28.1,11.6-48,31.6-60.6,59.1
	c-9.9,21.4-13.8,44.1-13.9,66.1c0,11.9,1,23.7,3.1,35.4c3.5,19.5,9.7,38,19.5,55.3c13.8,24.2,33.2,43,57,57.3
	c18.8,11.3,38.9,18.7,60.9,20c18.2,1.1,35.4-2.7,51.2-12c14.2-8.4,25.2-19.7,31.7-35c7.3-17.2,8.8-35.1,7.1-53.5
	C277.9,239.7,275.7,230.8,273.3,222z M254.4,297.6c-4.9,10.3-12.6,17.9-22.2,23.8c-14.1,8.7-29.6,11.8-46,10.2
	c-21.1-2.1-40-10.2-57.3-22.1c-32-21.8-51.3-52.1-59.5-89.7c-2.6-12.3-4-24.8-4-37.4l0,0c0.1-19.5,3.3-39,11.2-57.5
	c10.4-23.8,26.9-41.7,51-51.9c23-9.8,46.3-10,69.1,0.5c19.6,9,32.5,24.4,39.9,44.6c3.1,8.4,4.6,17.3,5.8,26.2
	c1.9,14.4,3.5,28.8,5.5,43.1c1.7,12.6,5,24.9,8,37.2c1.9,7.7,4,15.3,5,23.1C263.1,264.9,262,281.7,254.4,297.6z M224.2,209.1
	c-4.1-18.2-5.6-36.8-8-55.3c-1-7.8-2-15.6-4.2-23.1c-5.5-19.4-18-32-38-36.2c-16.6-3.5-32,0.1-46.1,9.3
	c-13.1,8.6-21.7,20.8-27.4,35.2c-5.5,14.1-7.7,28.8-7.7,48.1c0.2,8.4,1.2,16.7,3,24.8c2.8,13.9,7.4,27.3,14.7,39.5
	c11.6,19.2,28,33.4,47.8,43.7c11.5,6.1,24.2,9.5,37.2,9.9c11.3,0.2,21-3.3,28.7-11.8c5.6-6.2,8.1-13.8,9.4-21.9
	c1.7-10.3,0.8-20.4-1.7-30.4C229.3,230.4,226.6,219.8,224.2,209.1z M214.7,280.5c-3.1,5.3-8,8.2-14,8.9c-8.9,1.1-17.5-0.5-25.7-3.7
	c-30.5-11.9-51.4-33-61.2-64.6c-3.9-12.4-5.8-25.4-5.8-38.4l0,0c0-14.1,2.2-27.7,7.7-40.6c5.9-13.8,15.3-24.5,29.4-30.2
	c11.9-4.9,23.9-5.1,35.4,1c9,4.8,14.5,12.7,16.9,22.4c1.8,7.4,3,14.9,3.8,22.4c2.9,27.6,7,54.8,14.5,81.6c1.8,6.5,3.5,13.1,3.5,20
	C219.2,266.7,218.6,274,214.7,280.5z M322.2,219.5c-2.5-10.3-5.2-20.6-7.5-31c-3.4-15.2-4.5-30.8-6.4-46.2
	c-1.5-11.8-3.2-23.5-6.4-34.9c-8.3-30.4-24.2-56.1-49-75.6C214.8,1.9,171.6-6.7,125,5C77.2,17.2,42.6,46.6,20.5,90.7
	C7,118,0,148,0,178.5c0.2,21.3,1.7,36.2,4.7,50.9C9.4,252.7,17.1,275,29,295.7c18.1,31.7,43.3,56.4,74.5,75.1
	c26.4,15.8,54.8,25.4,85.8,26.7c19.6,0.9,39.2-2.5,57.3-10c23.8-9.9,43.7-24.9,58.3-46.4c13.7-20.2,20.3-42.7,22.1-66.8
	C328.3,255.9,326.7,237.4,322.2,219.5z M288.4,317.7c-9.2,17.6-23.1,30.5-40.3,40.1c-16.8,9.3-34.8,13.5-53.9,13.6
	c-23-0.2-44.6-5.9-65-16.3c-48.6-24.7-80.7-63.3-95.3-116c-5.6-20-8.1-40.7-7.6-61.4c0.8-27.6,6.5-54.1,19.5-78.7
	c18-34,45.2-57.3,82.4-67.7C168,20.2,205,27,237.6,53c20.9,16.8,33.7,38.8,40,64.8c2.5,10.8,4.3,21.8,5.3,32.9
	c2.3,23.2,6,46.2,12.2,68.7c3.1,10.6,5,21.6,5.7,32.6C302.1,275,299.1,297.1,288.4,317.7z"/>
<path id="word" d="M1265.3,214.2l-38.4-89.4h-24.4v172.1h29.9v-95.1l38.6,95.1h23.4V124.8h-29.1V214.2z M447.1,124.8h-53.8v172.1
	l35,0.1v-75h15.6c6.5,0.1,13-0.7,19.3-2.4c5.5-1.5,10.6-4.1,15.1-7.7c4.7-3.9,8.2-9.1,10.2-14.8c2.4-6.3,3.5-14,3.5-22.9
	C492,141.2,477,124.8,447.1,124.8z M455.1,192.2c-2.6,3.5-7.8,5.2-15.6,5.2h-11.2v-48.1h11.2c3.6-0.1,7.1,0.4,10.5,1.5
	c2.5,0.9,4.6,2.6,5.9,4.9c1.3,2.3,2.1,4.8,2.5,7.4c0.4,3.5,0.6,7.1,0.6,10.6C459.1,182.6,457.7,188.7,455.1,192.2z M544.3,124.8h-35
	v172.1h75.2V273h-40.2V124.8z M1355,273v-53.8h31v-24.5h-31v-45.6h40v-24.3h-75v172.1h75.4V273H1355z M1128.5,122.6
	c-9.3,0-17.3,1.2-23.9,3.7c-6.2,2.2-11.6,6-15.7,11.1c-4,5.2-6.9,11.1-8.5,17.5c-1.9,7.8-2.8,15.9-2.7,23.9v63.5
	c-0.1,8.1,0.8,16.1,2.7,24c1.6,6.4,4.5,12.4,8.5,17.7c4.1,5.2,9.5,9.1,15.7,11.3c6.6,2.5,14.5,3.8,23.9,3.8
	c18.2,0,31.3-4.8,39.2-14.5s11.9-23.8,11.9-42.3v-63.6c0-18.5-4-32.5-11.9-42C1159.8,127.3,1146.7,122.6,1128.5,122.6z
	 M1143.8,250.9c0,2.7-0.1,5.1-0.3,7.1c-0.2,2.1-0.6,4.2-1.2,6.2c-0.5,1.9-1.4,3.6-2.6,5.2c-1.2,1.4-2.7,2.5-4.5,3.3
	c-2.1,0.9-4.5,1.4-6.8,1.3c-2.3,0.1-4.6-0.4-6.8-1.3c-1.7-0.7-3.2-1.8-4.4-3.2c-1.1-1.6-2-3.3-2.4-5.2c-0.6-2-0.9-4.1-1.1-6.2
	c-0.2-2-0.3-4.3-0.3-7.1v-80.6c0-2.8,0.1-5.1,0.3-7.1c0.2-2.1,0.6-4.1,1.1-6.1c0.5-1.8,1.3-3.6,2.4-5.1c1.2-1.4,2.7-2.5,4.4-3.2
	c2.1-0.9,4.4-1.3,6.8-1.2c2.3-0.1,4.6,0.4,6.8,1.2c1.7,0.7,3.2,1.8,4.5,3.2c1.2,1.5,2,3.2,2.6,5c0.6,2,1,4,1.2,6.1
	c0.2,2,0.3,4.3,0.3,7.1V250.9z M630.6,124.8L597,296.9h33.1l6.3-38.1h27.3l6.3,38.1h32.5L669,124.8L630.6,124.8L630.6,124.8z
	 M639.7,237.1l10.2-68.5l10.3,68.5H639.7z M867.7,219.2h31v-24.5h-31v-45.6h40v-24.3h-75v172.1h75.4V273h-40.4V219.2z M923,150.6
	h27.5v146.3h35V150.6h27.1v-25.8H923L923,150.6L923,150.6z M782.4,214.2L744,124.8h-24.4v172.1h29.9v-95.1l38.6,95.1h23.4V124.8
	h-29.1V214.2z"/>
</svg>
